<mxfile host="app.diagrams.net" agent="Mozilla/5.0 (Windows NT 10.0; Win64; x64) AppleWebKit/537.36 (KHTML, like Gecko) Chrome/137.0.0.0 Safari/537.36" version="27.1.5">
  <diagram name="PaginÄƒ-1" id="x12mOu5g6S4hHWhaxOyy">
    <mxGraphModel dx="1111" dy="431" grid="1" gridSize="10" guides="1" tooltips="1" connect="1" arrows="1" fold="1" page="1" pageScale="1" pageWidth="827" pageHeight="1169" math="0" shadow="0">
      <root>
        <mxCell id="0" />
        <mxCell id="1" parent="0" />
        <mxCell id="yxizq96Zbxsg-FkcoGzO-7" value="" style="swimlane;startSize=0;" parent="1" vertex="1">
          <mxGeometry x="300" y="80" width="246" height="70" as="geometry" />
        </mxCell>
        <mxCell id="yxizq96Zbxsg-FkcoGzO-10" value="&lt;span class=&quot;selected&quot;&gt;GitHub Actions&lt;/span&gt;&lt;div&gt;&lt;span class=&quot;selected&quot;&gt;&lt;span class=&quot;selected&quot;&gt;(Builds &amp;amp; Pushes Images)&lt;/span&gt;&lt;/span&gt;&lt;/div&gt;" style="text;html=1;align=center;verticalAlign=middle;resizable=0;points=[];autosize=1;strokeColor=none;fillColor=none;" parent="yxizq96Zbxsg-FkcoGzO-7" vertex="1">
          <mxGeometry x="43" y="15" width="160" height="40" as="geometry" />
        </mxCell>
        <mxCell id="yxizq96Zbxsg-FkcoGzO-1" value="" style="swimlane;startSize=0;" parent="1" vertex="1">
          <mxGeometry x="100" y="260" width="750" height="710" as="geometry" />
        </mxCell>
        <mxCell id="yxizq96Zbxsg-FkcoGzO-6" value="&lt;span class=&quot;selected&quot;&gt;Single Google Cloud VM (e2-standard-8) running a 1-Node GKE Standard Cluster&lt;/span&gt;" style="text;html=1;align=center;verticalAlign=middle;whiteSpace=wrap;rounded=0;" parent="yxizq96Zbxsg-FkcoGzO-1" vertex="1">
          <mxGeometry x="30" y="10" width="570" height="30" as="geometry" />
        </mxCell>
        <mxCell id="yxizq96Zbxsg-FkcoGzO-15" value="" style="swimlane;startSize=0;" parent="yxizq96Zbxsg-FkcoGzO-1" vertex="1">
          <mxGeometry x="10" y="90" width="300" height="100" as="geometry" />
        </mxCell>
        <mxCell id="yxizq96Zbxsg-FkcoGzO-16" value="&lt;span class=&quot;selected&quot;&gt;KUBERNETES CONTROL PLANE (Managed by Google, &quot;The Manager&quot;)&amp;nbsp;&lt;/span&gt;" style="text;html=1;align=center;verticalAlign=middle;whiteSpace=wrap;rounded=0;" parent="yxizq96Zbxsg-FkcoGzO-15" vertex="1">
          <mxGeometry x="20" y="20" width="280" height="30" as="geometry" />
        </mxCell>
        <mxCell id="yxizq96Zbxsg-FkcoGzO-17" value="&lt;span class=&quot;selected&quot;&gt;- API Server, Scheduler, etc.&lt;/span&gt;" style="text;html=1;align=center;verticalAlign=middle;whiteSpace=wrap;rounded=0;" parent="yxizq96Zbxsg-FkcoGzO-15" vertex="1">
          <mxGeometry x="20" y="60" width="250" height="30" as="geometry" />
        </mxCell>
        <mxCell id="yxizq96Zbxsg-FkcoGzO-18" value="" style="swimlane;startSize=0;" parent="yxizq96Zbxsg-FkcoGzO-1" vertex="1">
          <mxGeometry x="350" y="90" width="260" height="120" as="geometry" />
        </mxCell>
        <mxCell id="yxizq96Zbxsg-FkcoGzO-19" value="&lt;span class=&quot;selected&quot;&gt;GITOPS / UI&lt;/span&gt;" style="text;html=1;align=center;verticalAlign=middle;whiteSpace=wrap;rounded=0;" parent="yxizq96Zbxsg-FkcoGzO-18" vertex="1">
          <mxGeometry x="30" y="10" width="130" height="30" as="geometry" />
        </mxCell>
        <mxCell id="yxizq96Zbxsg-FkcoGzO-20" value="" style="rounded=0;whiteSpace=wrap;html=1;" parent="yxizq96Zbxsg-FkcoGzO-18" vertex="1">
          <mxGeometry x="40" y="40" width="120" height="60" as="geometry" />
        </mxCell>
        <mxCell id="yxizq96Zbxsg-FkcoGzO-21" value="&lt;span class=&quot;selected&quot;&gt;Argo CD&lt;/span&gt;" style="text;html=1;align=center;verticalAlign=middle;whiteSpace=wrap;rounded=0;" parent="yxizq96Zbxsg-FkcoGzO-18" vertex="1">
          <mxGeometry x="70" y="40" width="60" height="30" as="geometry" />
        </mxCell>
        <mxCell id="yxizq96Zbxsg-FkcoGzO-22" value="&lt;span class=&quot;selected&quot;&gt;(Pulls from GitHub)&lt;/span&gt;" style="text;html=1;align=center;verticalAlign=middle;whiteSpace=wrap;rounded=0;" parent="yxizq96Zbxsg-FkcoGzO-18" vertex="1">
          <mxGeometry x="45" y="60" width="110" height="30" as="geometry" />
        </mxCell>
        <mxCell id="yxizq96Zbxsg-FkcoGzO-27" value="" style="endArrow=classic;startArrow=classic;html=1;rounded=0;entryX=0;entryY=1;entryDx=0;entryDy=0;exitX=1.013;exitY=0.86;exitDx=0;exitDy=0;exitPerimeter=0;" parent="yxizq96Zbxsg-FkcoGzO-1" source="yxizq96Zbxsg-FkcoGzO-15" target="yxizq96Zbxsg-FkcoGzO-18" edge="1">
          <mxGeometry width="50" height="50" relative="1" as="geometry">
            <mxPoint x="350" y="300" as="sourcePoint" />
            <mxPoint x="400" y="250" as="targetPoint" />
          </mxGeometry>
        </mxCell>
        <mxCell id="yxizq96Zbxsg-FkcoGzO-28" value="&lt;span class=&quot;selected&quot;&gt;//-- All services below run as Pods on a worker node --\\&lt;/span&gt;" style="text;html=1;align=center;verticalAlign=middle;whiteSpace=wrap;rounded=0;" parent="yxizq96Zbxsg-FkcoGzO-1" vertex="1">
          <mxGeometry x="10" y="210" width="300" height="30" as="geometry" />
        </mxCell>
        <mxCell id="yxizq96Zbxsg-FkcoGzO-29" value="&lt;span class=&quot;selected&quot;&gt;External Traffic (Simulated IoT Devices)&lt;/span&gt;" style="text;html=1;align=center;verticalAlign=middle;whiteSpace=wrap;rounded=0;" parent="yxizq96Zbxsg-FkcoGzO-1" vertex="1">
          <mxGeometry x="10" y="240" width="290" height="30" as="geometry" />
        </mxCell>
        <mxCell id="yxizq96Zbxsg-FkcoGzO-30" value="" style="swimlane;startSize=0;" parent="yxizq96Zbxsg-FkcoGzO-1" vertex="1">
          <mxGeometry x="50" y="280" width="90" height="70" as="geometry" />
        </mxCell>
        <mxCell id="yxizq96Zbxsg-FkcoGzO-40" value="&lt;span class=&quot;selected&quot;&gt;Kong&lt;/span&gt;&lt;div&gt;&lt;span class=&quot;selected&quot;&gt;&lt;span class=&quot;selected&quot;&gt;(API Gateway)&lt;/span&gt;&lt;/span&gt;&lt;/div&gt;" style="text;html=1;align=center;verticalAlign=middle;whiteSpace=wrap;rounded=0;" parent="yxizq96Zbxsg-FkcoGzO-30" vertex="1">
          <mxGeometry y="10" width="80" height="50" as="geometry" />
        </mxCell>
        <mxCell id="yxizq96Zbxsg-FkcoGzO-31" value="" style="swimlane;startSize=0;" parent="yxizq96Zbxsg-FkcoGzO-1" vertex="1">
          <mxGeometry x="214" y="280" width="106" height="70" as="geometry" />
        </mxCell>
        <mxCell id="yxizq96Zbxsg-FkcoGzO-41" value="&lt;span class=&quot;selected&quot;&gt;Kafka&lt;/span&gt;&lt;div&gt;&lt;span class=&quot;selected&quot;&gt;&lt;span class=&quot;selected&quot;&gt;(17 Topics)&lt;/span&gt;&lt;/span&gt;&lt;/div&gt;" style="text;html=1;align=center;verticalAlign=middle;whiteSpace=wrap;rounded=0;" parent="yxizq96Zbxsg-FkcoGzO-31" vertex="1">
          <mxGeometry width="100" height="70" as="geometry" />
        </mxCell>
        <mxCell id="yxizq96Zbxsg-FkcoGzO-32" value="" style="swimlane;startSize=0;" parent="yxizq96Zbxsg-FkcoGzO-1" vertex="1">
          <mxGeometry x="40" y="390" width="110" height="70" as="geometry" />
        </mxCell>
        <mxCell id="yxizq96Zbxsg-FkcoGzO-43" value="&lt;span class=&quot;selected&quot;&gt;Data Archiver&lt;/span&gt;&lt;div&gt;&lt;span class=&quot;selected&quot;&gt;&lt;span class=&quot;selected&quot;&gt;(Kafka Consumer)&lt;/span&gt;&lt;/span&gt;&lt;/div&gt;" style="text;html=1;align=center;verticalAlign=middle;whiteSpace=wrap;rounded=0;" parent="yxizq96Zbxsg-FkcoGzO-32" vertex="1">
          <mxGeometry width="110" height="70" as="geometry" />
        </mxCell>
        <mxCell id="yxizq96Zbxsg-FkcoGzO-33" value="" style="swimlane;startSize=0;" parent="yxizq96Zbxsg-FkcoGzO-1" vertex="1">
          <mxGeometry x="220" y="380" width="100" height="80" as="geometry" />
        </mxCell>
        <mxCell id="yxizq96Zbxsg-FkcoGzO-42" value="&lt;span class=&quot;selected&quot;&gt;MongoDB&lt;/span&gt;&lt;div&gt;&lt;span class=&quot;selected&quot;&gt;&lt;span class=&quot;selected&quot;&gt;(Raw Data)&lt;/span&gt;&lt;/span&gt;&lt;/div&gt;" style="text;html=1;align=center;verticalAlign=middle;whiteSpace=wrap;rounded=0;" parent="yxizq96Zbxsg-FkcoGzO-33" vertex="1">
          <mxGeometry width="100" height="80" as="geometry" />
        </mxCell>
        <mxCell id="yxizq96Zbxsg-FkcoGzO-34" value="" style="endArrow=classic;html=1;rounded=0;exitX=1;exitY=0.5;exitDx=0;exitDy=0;entryX=0;entryY=0.5;entryDx=0;entryDy=0;" parent="yxizq96Zbxsg-FkcoGzO-1" source="yxizq96Zbxsg-FkcoGzO-30" target="yxizq96Zbxsg-FkcoGzO-31" edge="1">
          <mxGeometry width="50" height="50" relative="1" as="geometry">
            <mxPoint x="350" y="300" as="sourcePoint" />
            <mxPoint x="400" y="250" as="targetPoint" />
          </mxGeometry>
        </mxCell>
        <mxCell id="yxizq96Zbxsg-FkcoGzO-35" value="" style="endArrow=classic;html=1;rounded=0;exitX=0.5;exitY=1;exitDx=0;exitDy=0;entryX=0.5;entryY=0;entryDx=0;entryDy=0;" parent="yxizq96Zbxsg-FkcoGzO-1" source="yxizq96Zbxsg-FkcoGzO-31" target="yxizq96Zbxsg-FkcoGzO-33" edge="1">
          <mxGeometry width="50" height="50" relative="1" as="geometry">
            <mxPoint x="350" y="300" as="sourcePoint" />
            <mxPoint x="400" y="250" as="targetPoint" />
          </mxGeometry>
        </mxCell>
        <mxCell id="yxizq96Zbxsg-FkcoGzO-39" value="" style="endArrow=classic;html=1;rounded=0;exitX=1;exitY=0.5;exitDx=0;exitDy=0;entryX=0;entryY=0.5;entryDx=0;entryDy=0;" parent="yxizq96Zbxsg-FkcoGzO-1" source="yxizq96Zbxsg-FkcoGzO-32" target="yxizq96Zbxsg-FkcoGzO-33" edge="1">
          <mxGeometry width="50" height="50" relative="1" as="geometry">
            <mxPoint x="350" y="300" as="sourcePoint" />
            <mxPoint x="400" y="250" as="targetPoint" />
          </mxGeometry>
        </mxCell>
        <mxCell id="yxizq96Zbxsg-FkcoGzO-44" value="1. Task" style="text;html=1;align=center;verticalAlign=middle;whiteSpace=wrap;rounded=0;" parent="yxizq96Zbxsg-FkcoGzO-1" vertex="1">
          <mxGeometry x="150" y="310" width="60" height="30" as="geometry" />
        </mxCell>
        <mxCell id="yxizq96Zbxsg-FkcoGzO-45" value="4. Raw data copied" style="text;html=1;align=center;verticalAlign=middle;whiteSpace=wrap;rounded=0;" parent="yxizq96Zbxsg-FkcoGzO-1" vertex="1">
          <mxGeometry x="280" y="350" width="100" height="30" as="geometry" />
        </mxCell>
        <mxCell id="yxizq96Zbxsg-FkcoGzO-48" value="" style="swimlane;startSize=0;" parent="yxizq96Zbxsg-FkcoGzO-1" vertex="1">
          <mxGeometry x="400" y="275" width="140" height="80" as="geometry" />
        </mxCell>
        <mxCell id="yxizq96Zbxsg-FkcoGzO-49" value="&lt;span class=&quot;selected&quot;&gt;Java Orchestrator&lt;/span&gt;" style="text;html=1;align=center;verticalAlign=middle;whiteSpace=wrap;rounded=0;" parent="yxizq96Zbxsg-FkcoGzO-48" vertex="1">
          <mxGeometry width="140" height="80" as="geometry" />
        </mxCell>
        <mxCell id="yxizq96Zbxsg-FkcoGzO-50" value="" style="swimlane;startSize=0;" parent="yxizq96Zbxsg-FkcoGzO-1" vertex="1">
          <mxGeometry x="610" y="275" width="120" height="90" as="geometry" />
        </mxCell>
        <mxCell id="yxizq96Zbxsg-FkcoGzO-52" value="&lt;span class=&quot;selected&quot;&gt;Python ML Svc&lt;/span&gt;" style="text;html=1;align=center;verticalAlign=middle;whiteSpace=wrap;rounded=0;" parent="yxizq96Zbxsg-FkcoGzO-50" vertex="1">
          <mxGeometry width="120" height="90" as="geometry" />
        </mxCell>
        <mxCell id="yxizq96Zbxsg-FkcoGzO-61" value="3. Decision?" style="text;html=1;align=center;verticalAlign=middle;whiteSpace=wrap;rounded=0;" parent="yxizq96Zbxsg-FkcoGzO-50" vertex="1">
          <mxGeometry x="-70" y="15" width="77" height="20" as="geometry" />
        </mxCell>
        <mxCell id="yxizq96Zbxsg-FkcoGzO-53" value="" style="swimlane;startSize=0;" parent="yxizq96Zbxsg-FkcoGzO-1" vertex="1">
          <mxGeometry x="410" y="400" width="120" height="90" as="geometry" />
        </mxCell>
        <mxCell id="yxizq96Zbxsg-FkcoGzO-54" value="&lt;span class=&quot;selected&quot;&gt;Edge/Cloud&amp;nbsp;&lt;/span&gt;&lt;span class=&quot;selected&quot;&gt;Worker&lt;/span&gt;&lt;div&gt;&lt;span class=&quot;selected&quot;&gt;(Go / Python)&lt;/span&gt;&lt;/div&gt;" style="text;html=1;align=center;verticalAlign=middle;whiteSpace=wrap;rounded=0;" parent="yxizq96Zbxsg-FkcoGzO-53" vertex="1">
          <mxGeometry x="-1" width="121" height="90" as="geometry" />
        </mxCell>
        <mxCell id="yxizq96Zbxsg-FkcoGzO-55" value="" style="swimlane;startSize=0;" parent="yxizq96Zbxsg-FkcoGzO-1" vertex="1">
          <mxGeometry x="295" y="530" width="160" height="100" as="geometry" />
        </mxCell>
        <mxCell id="yxizq96Zbxsg-FkcoGzO-56" value="&lt;span class=&quot;selected&quot;&gt;PostgreSQL&lt;/span&gt;&lt;div&gt;&lt;span class=&quot;selected&quot;&gt;&lt;span class=&quot;selected&quot;&gt;(Processed Data)&lt;/span&gt;&lt;/span&gt;&lt;/div&gt;" style="text;html=1;align=center;verticalAlign=middle;whiteSpace=wrap;rounded=0;" parent="yxizq96Zbxsg-FkcoGzO-55" vertex="1">
          <mxGeometry y="30" width="160" height="35" as="geometry" />
        </mxCell>
        <mxCell id="yxizq96Zbxsg-FkcoGzO-57" value="" style="swimlane;startSize=0;" parent="yxizq96Zbxsg-FkcoGzO-1" vertex="1">
          <mxGeometry x="523" y="540" width="160" height="70" as="geometry" />
        </mxCell>
        <mxCell id="yxizq96Zbxsg-FkcoGzO-58" value="&lt;span class=&quot;selected&quot;&gt;Grafana&lt;/span&gt;&lt;div&gt;&lt;span class=&quot;selected&quot;&gt;&lt;span class=&quot;selected&quot;&gt;(Visualization)&lt;/span&gt;&lt;/span&gt;&lt;/div&gt;" style="text;html=1;align=center;verticalAlign=middle;whiteSpace=wrap;rounded=0;" parent="yxizq96Zbxsg-FkcoGzO-57" vertex="1">
          <mxGeometry x="17" y="10" width="133" height="40" as="geometry" />
        </mxCell>
        <mxCell id="yxizq96Zbxsg-FkcoGzO-51" value="2. Task" style="text;html=1;align=center;verticalAlign=middle;whiteSpace=wrap;rounded=0;" parent="yxizq96Zbxsg-FkcoGzO-1" vertex="1">
          <mxGeometry x="333" y="280" width="60" height="30" as="geometry" />
        </mxCell>
        <mxCell id="yxizq96Zbxsg-FkcoGzO-59" value="" style="endArrow=classic;html=1;rounded=0;exitX=1;exitY=0.5;exitDx=0;exitDy=0;entryX=0;entryY=0.5;entryDx=0;entryDy=0;" parent="yxizq96Zbxsg-FkcoGzO-1" source="yxizq96Zbxsg-FkcoGzO-31" target="yxizq96Zbxsg-FkcoGzO-49" edge="1">
          <mxGeometry width="50" height="50" relative="1" as="geometry">
            <mxPoint x="363" y="440" as="sourcePoint" />
            <mxPoint x="413" y="390" as="targetPoint" />
          </mxGeometry>
        </mxCell>
        <mxCell id="yxizq96Zbxsg-FkcoGzO-60" value="" style="endArrow=classic;startArrow=classic;html=1;rounded=0;entryX=0;entryY=0.5;entryDx=0;entryDy=0;exitX=1;exitY=0.5;exitDx=0;exitDy=0;" parent="yxizq96Zbxsg-FkcoGzO-1" source="yxizq96Zbxsg-FkcoGzO-49" target="yxizq96Zbxsg-FkcoGzO-52" edge="1">
          <mxGeometry width="50" height="50" relative="1" as="geometry">
            <mxPoint x="363" y="440" as="sourcePoint" />
            <mxPoint x="413" y="390" as="targetPoint" />
          </mxGeometry>
        </mxCell>
        <mxCell id="yxizq96Zbxsg-FkcoGzO-64" value="" style="endArrow=classic;html=1;rounded=0;exitX=0.5;exitY=1;exitDx=0;exitDy=0;entryX=0.5;entryY=0;entryDx=0;entryDy=0;" parent="yxizq96Zbxsg-FkcoGzO-1" source="yxizq96Zbxsg-FkcoGzO-49" target="yxizq96Zbxsg-FkcoGzO-54" edge="1">
          <mxGeometry width="50" height="50" relative="1" as="geometry">
            <mxPoint x="340" y="430" as="sourcePoint" />
            <mxPoint x="390" y="380" as="targetPoint" />
          </mxGeometry>
        </mxCell>
        <mxCell id="yxizq96Zbxsg-FkcoGzO-65" value="&lt;span class=&quot;selected&quot;&gt;5. Reroute Task&lt;/span&gt;" style="text;html=1;align=center;verticalAlign=middle;whiteSpace=wrap;rounded=0;" parent="yxizq96Zbxsg-FkcoGzO-1" vertex="1">
          <mxGeometry x="490" y="360" width="120" height="30" as="geometry" />
        </mxCell>
        <mxCell id="yxizq96Zbxsg-FkcoGzO-66" value="&lt;span class=&quot;selected&quot;&gt;6. Final Task Received&lt;/span&gt;" style="text;html=1;align=center;verticalAlign=middle;whiteSpace=wrap;rounded=0;" parent="yxizq96Zbxsg-FkcoGzO-1" vertex="1">
          <mxGeometry x="540" y="430" width="120" height="30" as="geometry" />
        </mxCell>
        <mxCell id="yxizq96Zbxsg-FkcoGzO-67" value="" style="endArrow=classic;html=1;rounded=0;entryX=0.5;entryY=0;entryDx=0;entryDy=0;exitX=0.455;exitY=0.989;exitDx=0;exitDy=0;exitPerimeter=0;" parent="yxizq96Zbxsg-FkcoGzO-1" source="yxizq96Zbxsg-FkcoGzO-54" target="yxizq96Zbxsg-FkcoGzO-55" edge="1">
          <mxGeometry width="50" height="50" relative="1" as="geometry">
            <mxPoint x="340" y="400" as="sourcePoint" />
            <mxPoint x="390" y="350" as="targetPoint" />
          </mxGeometry>
        </mxCell>
        <mxCell id="yxizq96Zbxsg-FkcoGzO-68" value="7. Process and store results" style="text;html=1;align=center;verticalAlign=middle;whiteSpace=wrap;rounded=0;" parent="yxizq96Zbxsg-FkcoGzO-1" vertex="1">
          <mxGeometry x="430" y="500" width="190" height="30" as="geometry" />
        </mxCell>
        <mxCell id="yxizq96Zbxsg-FkcoGzO-69" value="" style="endArrow=classic;html=1;rounded=0;entryX=0;entryY=0.643;entryDx=0;entryDy=0;entryPerimeter=0;exitX=1;exitY=0.5;exitDx=0;exitDy=0;" parent="yxizq96Zbxsg-FkcoGzO-1" source="yxizq96Zbxsg-FkcoGzO-56" target="yxizq96Zbxsg-FkcoGzO-57" edge="1">
          <mxGeometry width="50" height="50" relative="1" as="geometry">
            <mxPoint x="340" y="400" as="sourcePoint" />
            <mxPoint x="390" y="350" as="targetPoint" />
          </mxGeometry>
        </mxCell>
        <mxCell id="yxizq96Zbxsg-FkcoGzO-70" value="&lt;span class=&quot;selected&quot;&gt;(REST API?)&lt;/span&gt;" style="text;html=1;align=center;verticalAlign=middle;whiteSpace=wrap;rounded=0;" parent="yxizq96Zbxsg-FkcoGzO-1" vertex="1">
          <mxGeometry x="420" y="240" width="60" height="30" as="geometry" />
        </mxCell>
      </root>
    </mxGraphModel>
  </diagram>
</mxfile>
